<svg width="253" height="100" viewBox="0 0 253 100" fill="none" xmlns="http://www.w3.org/2000/svg">
<path d="M24.75 23.8889L15.375 76.1111M87 13.4444L34.5 13.4444M76.5 86.5555L24 86.5556M21.9 23.8889H26.1C29.0403 23.8889 30.5104 23.8889 31.6334 23.3197C32.6213 22.819 33.4244 22.0201 33.9278 21.0375C34.5 19.9204 34.5 18.4581 34.5 15.5333V11.3556C34.5 8.43084 34.5 6.96848 33.9278 5.85138C33.4244 4.86876 32.6213 4.06986 31.6334 3.56919C30.5104 3 29.0403 3 26.1 3H21.9C18.9597 3 17.4896 3 16.3666 3.56919C15.3787 4.06986 14.5756 4.86876 14.0722 5.85138C13.5 6.96848 13.5 8.43084 13.5 11.3556V15.5333C13.5 18.4581 13.5 19.9204 14.0722 21.0375C14.5756 22.0201 15.3787 22.819 16.3666 23.3197C17.4896 23.8889 18.9597 23.8889 21.9 23.8889ZM11.4 97H15.6C18.5403 97 20.0104 97 21.1334 96.4308C22.1213 95.9301 22.9244 95.1312 23.4278 94.1486C24 93.0315 24 91.5692 24 88.6444V84.4667C24 81.5419 24 80.0796 23.4278 78.9625C22.9244 77.9799 22.1213 77.181 21.1334 76.6803C20.0104 76.1111 18.5403 76.1111 15.6 76.1111H11.4C8.45972 76.1111 6.98959 76.1111 5.86655 76.6803C4.8787 77.181 4.07555 77.9799 3.57222 78.9625C3 80.0796 3 81.5419 3 84.4667V88.6444C3 91.5692 3 93.0315 3.57222 94.1486C4.07555 95.1312 4.8787 95.9301 5.86655 96.4308C6.98959 97 8.45972 97 11.4 97ZM95.4 23.8889H99.6C102.54 23.8889 104.01 23.8889 105.133 23.3197C106.121 22.819 106.924 22.0201 107.428 21.0375C108 19.9204 108 18.4581 108 15.5333V11.3556C108 8.43084 108 6.96848 107.428 5.85138C106.924 4.86876 106.121 4.06986 105.133 3.56919C104.01 3 102.54 3 99.6 3H95.4C92.4597 3 90.9896 3 89.8665 3.56919C88.8787 4.06986 88.0756 4.86876 87.5722 5.85138C87 6.96848 87 8.43084 87 11.3556V15.5333C87 18.4581 87 19.9204 87.5722 21.0375C88.0756 22.0201 88.8787 22.819 89.8665 23.3197C90.9896 23.8889 92.4597 23.8889 95.4 23.8889ZM84.9 97H89.1C92.0403 97 93.5104 97 94.6335 96.4308C95.6213 95.9301 96.4244 95.1312 96.9278 94.1486C97.5 93.0315 97.5 91.5692 97.5 88.6444V84.4667C97.5 81.5419 97.5 80.0796 96.9278 78.9625C96.4244 77.9799 95.6213 77.181 94.6335 76.6803C93.5104 76.1111 92.0403 76.1111 89.1 76.1111H84.9C81.9597 76.1111 80.4896 76.1111 79.3665 76.6803C78.3787 77.181 77.5756 77.9799 77.0722 78.9625C76.5 80.0796 76.5 81.5419 76.5 84.4667V88.6444C76.5 91.5692 76.5 93.0315 77.0722 94.1486C77.5756 95.1312 78.3787 95.9301 79.3665 96.4308C80.4896 97 81.9597 97 84.9 97Z" stroke="white" stroke-width="6" stroke-linecap="round" stroke-linejoin="round"/>
<path d="M39.85 50.55C39.85 47.15 40.6333 44.1 42.2 41.4C43.8 38.7 45.95 36.6 48.65 35.1C51.3833 33.5667 54.3667 32.8 57.6 32.8C61.3 32.8 64.5833 33.7167 67.45 35.55C70.35 37.35 72.45 39.9167 73.75 43.25H66.9C66 41.4167 64.75 40.05 63.15 39.15C61.55 38.25 59.7 37.8 57.6 37.8C55.3 37.8 53.25 38.3167 51.45 39.35C49.65 40.3833 48.2333 41.8667 47.2 43.8C46.2 45.7333 45.7 47.9833 45.7 50.55C45.7 53.1167 46.2 55.3667 47.2 57.3C48.2333 59.2333 49.65 60.7333 51.45 61.8C53.25 62.8333 55.3 63.35 57.6 63.35C59.7 63.35 61.55 62.9 63.15 62C64.75 61.1 66 59.7333 66.9 57.9H73.75C72.45 61.2333 70.35 63.8 67.45 65.6C64.5833 67.4 61.3 68.3 57.6 68.3C54.3333 68.3 51.35 67.55 48.65 66.05C45.95 64.5167 43.8 62.4 42.2 59.7C40.6333 57 39.85 53.95 39.85 50.55ZM92.3719 68.45C89.7719 68.45 87.4219 67.8667 85.3219 66.7C83.2219 65.5 81.5719 63.8333 80.3719 61.7C79.1719 59.5333 78.5719 57.0333 78.5719 54.2C78.5719 51.4 79.1885 48.9167 80.4219 46.75C81.6552 44.5833 83.3385 42.9167 85.4719 41.75C87.6052 40.5833 89.9885 40 92.6219 40C95.2552 40 97.6385 40.5833 99.7719 41.75C101.905 42.9167 103.589 44.5833 104.822 46.75C106.055 48.9167 106.672 51.4 106.672 54.2C106.672 57 106.039 59.4833 104.772 61.65C103.505 63.8167 101.772 65.5 99.5719 66.7C97.4052 67.8667 95.0052 68.45 92.3719 68.45ZM92.3719 63.5C93.8385 63.5 95.2052 63.15 96.4719 62.45C97.7719 61.75 98.8219 60.7 99.6219 59.3C100.422 57.9 100.822 56.2 100.822 54.2C100.822 52.2 100.439 50.5167 99.6719 49.15C98.9052 47.75 97.8885 46.7 96.6219 46C95.3552 45.3 93.9885 44.95 92.5219 44.95C91.0552 44.95 89.6885 45.3 88.4219 46C87.1885 46.7 86.2052 47.75 85.4719 49.15C84.7385 50.5167 84.3719 52.2 84.3719 54.2C84.3719 57.1667 85.1219 59.4667 86.6219 61.1C88.1552 62.7 90.0719 63.5 92.3719 63.5ZM126.207 40C128.373 40 130.307 40.45 132.007 41.35C133.74 42.25 135.09 43.5833 136.057 45.35C137.023 47.1167 137.507 49.25 137.507 51.75V68H131.857V52.6C131.857 50.1333 131.24 48.25 130.007 46.95C128.773 45.6167 127.09 44.95 124.957 44.95C122.823 44.95 121.123 45.6167 119.857 46.95C118.623 48.25 118.007 50.1333 118.007 52.6V68H112.307V40.45H118.007V43.6C118.94 42.4667 120.123 41.5833 121.557 40.95C123.023 40.3167 124.573 40 126.207 40ZM158.677 40C160.844 40 162.777 40.45 164.477 41.35C166.211 42.25 167.561 43.5833 168.527 45.35C169.494 47.1167 169.977 49.25 169.977 51.75V68H164.327V52.6C164.327 50.1333 163.711 48.25 162.477 46.95C161.244 45.6167 159.561 44.95 157.427 44.95C155.294 44.95 153.594 45.6167 152.327 46.95C151.094 48.25 150.477 50.1333 150.477 52.6V68H144.777V40.45H150.477V43.6C151.411 42.4667 152.594 41.5833 154.027 40.95C155.494 40.3167 157.044 40 158.677 40ZM202.498 53.55C202.498 54.5833 202.431 55.5167 202.298 56.35H181.248C181.415 58.55 182.231 60.3167 183.698 61.65C185.165 62.9833 186.965 63.65 189.098 63.65C192.165 63.65 194.331 62.3667 195.598 59.8H201.748C200.915 62.3333 199.398 64.4167 197.198 66.05C195.031 67.65 192.331 68.45 189.098 68.45C186.465 68.45 184.098 67.8667 181.998 66.7C179.931 65.5 178.298 63.8333 177.098 61.7C175.931 59.5333 175.348 57.0333 175.348 54.2C175.348 51.3667 175.915 48.8833 177.048 46.75C178.215 44.5833 179.831 42.9167 181.898 41.75C183.998 40.5833 186.398 40 189.098 40C191.698 40 194.015 40.5667 196.048 41.7C198.081 42.8333 199.665 44.4333 200.798 46.5C201.931 48.5333 202.498 50.8833 202.498 53.55ZM196.548 51.75C196.515 49.65 195.765 47.9667 194.298 46.7C192.831 45.4333 191.015 44.8 188.848 44.8C186.881 44.8 185.198 45.4333 183.798 46.7C182.398 47.9333 181.565 49.6167 181.298 51.75H196.548ZM206.207 54.2C206.207 51.3667 206.774 48.8833 207.907 46.75C209.074 44.5833 210.674 42.9167 212.707 41.75C214.741 40.5833 217.074 40 219.707 40C223.041 40 225.791 40.8 227.957 42.4C230.157 43.9667 231.641 46.2167 232.407 49.15H226.257C225.757 47.7833 224.957 46.7167 223.857 45.95C222.757 45.1833 221.374 44.8 219.707 44.8C217.374 44.8 215.507 45.6333 214.107 47.3C212.741 48.9333 212.057 51.2333 212.057 54.2C212.057 57.1667 212.741 59.4833 214.107 61.15C215.507 62.8167 217.374 63.65 219.707 63.65C223.007 63.65 225.191 62.2 226.257 59.3H232.407C231.607 62.1 230.107 64.3333 227.907 66C225.707 67.6333 222.974 68.45 219.707 68.45C217.074 68.45 214.741 67.8667 212.707 66.7C210.674 65.5 209.074 63.8333 207.907 61.7C206.774 59.5333 206.207 57.0333 206.207 54.2ZM244.738 45.1V60.35C244.738 61.3833 244.971 62.1333 245.438 62.6C245.938 63.0333 246.771 63.25 247.938 63.25H251.438V68H246.938C244.371 68 242.405 67.4 241.038 66.2C239.671 65 238.988 63.05 238.988 60.35V45.1H235.738V40.45H238.988V33.6H244.738V40.45H251.438V45.1H244.738Z" fill="white"/>
</svg>
